Coordinates
version=1
nRows=15
nColumns=63
inDegrees=yes

Units are S.I. units (second, meters, Newtons, ...)
If the header above contains a line with 'inDegrees', this indicates whether rotational values are in degrees (yes) or radians (no).

endheader
time	pelvis_tilt	pelvis_list	pelvis_rotation	pelvis_tx	pelvis_ty	pelvis_tz	hip_flexion_r	hip_adduction_r	hip_rotation_r	knee_angle_r	knee_angle_r_beta	ankle_angle_r	subtalar_angle_r	mtp_angle_r	hip_flexion_l	hip_adduction_l	hip_rotation_l	knee_angle_l	knee_angle_l_beta	ankle_angle_l	subtalar_angle_l	mtp_angle_l	L5_S1_Flex_Ext	L5_S1_Lat_Bending	L5_S1_axial_rotation	L4_L5_Flex_Ext	L4_L5_Lat_Bending	L4_L5_axial_rotation	L3_L4_Flex_Ext	L3_L4_Lat_Bending	L3_L4_axial_rotation	L2_L3_Flex_Ext	L2_L3_Lat_Bending	L2_L3_axial_rotation	L1_L2_Flex_Ext	L1_L2_Lat_Bending	L1_L2_axial_rotation	L1_T12_Flex_Ext	L1_T12_Lat_Bending	L1_T12_axial_rotation	Abs_r3	Abs_r2	Abs_r1	Abs_t1	Abs_t2	neck_flexion	neck_bending	neck_rotation	arm_flex_r	arm_add_r	arm_rot_r	elbow_flex_r	pro_sup_r	wrist_flex_r	wrist_dev_r	arm_flex_l	arm_add_l	arm_rot_l	elbow_flex_l	pro_sup_l	wrist_flex_l	wrist_dev_l
0.983051	-1.452019	0.041879	84.184807	0.327610	0.948904	0.396449	-2.972145	2.270880	5.969230	7.332563	0.127977	24.243340	-9.610188	0.000000	1.532139	-1.066697	3.821684	14.437937	0.251990	33.270297	-10.412749	0.000000	0.008573	-0.095400	2.127546	0.015920	-0.126882	2.260517	0.014084	-0.231955	2.260517	0.009798	-0.231955	1.861602	0.007961	-0.194539	1.728631	0.004898	-0.147774	1.595659	0.061233	-1.079182	11.832770	0.000000	0.000000	26.084058	-0.612609	-19.480288	5.695573	-11.905874	57.048792	50.330495	80.150312	5.195298	2.398478	18.479830	-6.344437	81.729749	48.726367	51.799329	-0.234390	2.750665
1.000000	-1.581092	0.007898	83.743764	0.328608	0.948833	0.395945	-3.118030	2.131251	6.359333	7.020434	0.122530	24.201114	-9.442843	0.000000	1.443477	-0.980978	3.328207	14.321302	0.249954	33.281448	-10.308187	0.000000	0.009824	-0.111588	2.214414	0.018244	-0.148411	2.352815	0.016140	-0.271314	2.352815	0.011228	-0.271314	1.937612	0.009122	-0.227549	1.799212	0.005613	-0.172849	1.660811	0.070171	-1.262301	12.315908	0.000000	0.000000	26.187863	-0.546999	-19.689326	5.227325	-11.860583	55.825554	50.680098	80.685419	5.587547	2.598734	18.275507	-6.386800	81.825011	48.673785	53.810895	0.246742	2.686364
1.016949	-1.712886	-0.012150	83.342674	0.329524	0.948773	0.395562	-3.250255	1.989037	6.717498	6.753565	0.117872	24.171944	-9.303577	0.000000	1.368423	-0.889604	2.857420	14.227226	0.248312	33.314091	-10.185307	0.000000	0.010643	-0.125709	2.270886	0.019765	-0.167194	2.412816	0.017486	-0.305650	2.412816	0.012164	-0.305650	1.987025	0.009883	-0.256347	1.845094	0.006081	-0.194724	1.703164	0.076023	-1.422051	12.629984	0.000000	0.000000	26.177353	-0.387065	-19.648102	5.069597	-11.766605	55.264433	50.807061	81.531770	5.670606	2.705911	18.055870	-6.416308	81.653112	48.505986	56.319173	0.621296	2.478722
1.033898	-1.841442	-0.013101	83.008115	0.330320	0.948733	0.395310	-3.375168	1.851359	7.008154	6.529703	0.113965	24.154592	-9.177751	0.000000	1.304590	-0.795366	2.453586	14.157213	0.247090	33.359522	-10.080419	0.000000	0.010078	-0.137437	2.293536	0.018717	-0.182792	2.436882	0.016558	-0.334165	2.436882	0.011519	-0.334165	2.006844	0.009359	-0.280262	1.863498	0.005759	-0.212891	1.720152	0.071990	-1.554719	12.755959	0.000000	0.000000	26.073157	-0.137753	-19.383750	5.224230	-11.632463	55.370753	50.716092	82.619129	5.456712	2.750977	17.841866	-6.437328	81.256768	48.241988	59.051863	0.830101	2.126069
1.050847	-1.963402	0.002346	82.743124	0.331001	0.948715	0.395181	-3.489775	1.722550	7.241081	6.349464	0.110819	24.143170	-9.082122	0.000000	1.252368	-0.710062	2.063890	14.108955	0.246248	33.425972	-9.920803	0.000000	0.008657	-0.146703	2.282507	0.016077	-0.195115	2.425163	0.014223	-0.356694	2.425163	0.009894	-0.356694	1.997193	0.008039	-0.299157	1.854537	0.004947	-0.227243	1.711880	0.061837	-1.659534	12.694618	0.000000	0.000000	25.887117	0.187541	-18.895647	5.691108	-11.451488	56.158622	50.394783	83.910556	4.939062	2.699287	17.635063	-6.464512	80.639750	47.925178	61.783385	0.845263	1.681514
1.067797	-2.075627	0.022663	82.553529	0.331555	0.948714	0.395151	-3.586341	1.605403	7.380133	6.206583	0.108325	24.148743	-8.965590	0.000000	1.219219	-0.639376	1.680031	14.080522	0.245751	33.508640	-9.692219	0.000000	0.007544	-0.153463	2.241998	0.014011	-0.204105	2.382123	0.012395	-0.373129	2.382123	0.008623	-0.373129	1.961748	0.007006	-0.312941	1.821624	0.004311	-0.237714	1.681499	0.053889	-1.736001	12.469321	0.000000	0.000000	25.655991	0.565545	-18.231388	6.384361	-11.237539	57.413073	49.882446	85.311854	4.228609	2.555804	17.436756	-6.496148	79.811261	47.582029	64.406822	0.687818	1.168634
1.084746	-2.176169	0.039288	82.441721	0.331986	0.948723	0.395197	-3.661870	1.503925	7.445966	6.091240	0.106312	24.157262	-8.857663	0.000000	1.209650	-0.583998	1.318193	14.070119	0.245570	33.590832	-9.420228	0.000000	0.007473	-0.158103	2.175959	0.013879	-0.210277	2.311956	0.012278	-0.384412	2.311956	0.008541	-0.384412	1.903964	0.006940	-0.322404	1.767966	0.004270	-0.244902	1.631969	0.053382	-1.788494	12.102030	0.000000	0.000000	25.408706	0.979887	-17.448053	7.265613	-10.995600	59.093316	49.203564	86.565712	3.325426	2.267679	17.264743	-6.542584	78.860681	47.250467	66.658579	0.360670	0.605425
1.101695	-2.259913	0.047950	82.419369	0.332279	0.948741	0.395302	-3.720839	1.425201	7.438100	5.988242	0.104515	24.156695	-8.775251	0.000000	1.226105	-0.547539	1.006955	14.080191	0.245746	33.656491	-9.130017	0.000000	0.008545	-0.160079	2.085851	0.015869	-0.212905	2.216216	0.014039	-0.389216	2.216216	0.009766	-0.389216	1.825119	0.007935	-0.326433	1.694754	0.004883	-0.247962	1.564388	0.061038	-1.810844	11.600876	0.000000	0.000000	25.161892	1.439910	-16.523719	8.283117	-10.740127	61.119878	48.408088	87.686349	2.159174	1.780806	17.118333	-6.604780	77.816593	46.948587	68.469776	-0.099947	0.009578
1.118644	-2.327946	0.042009	82.476096	0.332449	0.948749	0.395475	-3.753770	1.370673	7.418468	5.901479	0.103000	24.133780	-8.790776	0.000000	1.273245	-0.524887	0.774500	14.111095	0.246285	33.688992	-8.873871	0.000000	0.010682	-0.160117	1.980226	0.019838	-0.212956	2.103990	0.017550	-0.389309	2.103990	0.012209	-0.389309	1.732698	0.009920	-0.326511	1.608933	0.006104	-0.248022	1.485169	0.076303	-1.811278	11.013422	0.000000	0.000000	24.917147	1.907154	-15.573025	9.368441	-10.482736	63.330714	47.558273	88.522313	0.874045	1.186990	17.023504	-6.681478	76.770354	46.690424	69.805493	-0.640382	-0.585449
1.135593	-2.377118	0.018528	82.599860	0.332513	0.948748	0.395705	-3.768362	1.341386	7.368534	5.809335	0.101392	24.089708	-8.852209	0.000000	1.350973	-0.521784	0.595566	14.164275	0.247213	33.692634	-8.620424	0.000000	0.014009	-0.157774	1.863059	0.026017	-0.209839	1.979500	0.023016	-0.383611	1.979500	0.016011	-0.383611	1.630177	0.013009	-0.321732	1.513735	0.008005	-0.244392	1.397294	0.100067	-1.784770	10.361775	0.000000	0.000000	24.680907	2.385764	-14.577652	10.475505	-10.236951	65.662095	46.696388	89.117874	-0.598366	0.420254	16.964382	-6.772264	75.750929	46.487739	70.659624	-1.272636	-1.191728
1.152542	-2.410906	-0.023935	82.776401	0.332492	0.948725	0.395993	-3.757915	1.331504	7.223946	5.722987	0.099885	24.053915	-8.850727	0.000000	1.457803	-0.537259	0.450628	14.236267	0.248470	33.675031	-8.346115	0.000000	0.018010	-0.153695	1.742306	0.033446	-0.204415	1.851201	0.029588	-0.373695	1.851201	0.020584	-0.373695	1.524518	0.016724	-0.313416	1.415624	0.010291	-0.238074	1.306730	0.128643	-1.738633	9.690185	0.000000	0.000000	24.459573	2.856160	-13.593582	11.515233	-10.011264	67.876399	45.890750	89.441608	-2.077939	-0.375509	16.935928	-6.868499	74.778517	46.322088	71.203832	-1.903284	-1.806458
1.169492	-2.433871	-0.084089	82.997973	0.332389	0.948683	0.396301	-3.739303	1.336297	7.067850	5.616254	0.098022	23.992736	-8.887834	0.000000	1.589459	-0.555840	0.402549	14.321951	0.249965	33.620667	-8.158333	0.000000	0.023407	-0.148401	1.617565	0.043469	-0.197373	1.718662	0.038455	-0.360822	1.718662	0.026752	-0.360822	1.415369	0.021736	-0.302619	1.314271	0.013375	-0.229873	1.213173	0.167193	-1.678740	8.996409	0.000000	0.000000	24.253206	3.305473	-12.621429	12.473244	-9.798547	69.963694	45.129742	89.481440	-3.494023	-1.264358	16.908471	-6.971627	73.878401	46.194446	71.344602	-2.567365	-2.477826
1.186441	-2.436053	-0.155154	83.254060	0.332225	0.948622	0.396635	-3.704154	1.359038	6.702104	5.522312	0.096383	23.990288	-8.667039	0.000000	1.736913	-0.601697	0.345353	14.418456	0.251650	33.574402	-7.908270	0.000000	0.028886	-0.141018	1.496660	0.053643	-0.187554	1.590201	0.047456	-0.342870	1.590201	0.033013	-0.342870	1.309577	0.026823	-0.287563	1.216036	0.016505	-0.218436	1.122495	0.206327	-1.595220	8.323972	0.000000	0.000000	24.083440	3.700120	-11.706242	13.309066	-9.622796	71.811110	44.466645	89.196371	-4.741368	-2.103564	16.910606	-7.071632	73.188244	46.119338	70.706854	-3.279626	-3.114647
1.203390	-2.440943	-0.232231	83.478969	0.332077	0.948542	0.396934	-3.685317	1.377969	6.472152	5.384546	0.093978	23.936156	-8.577904	0.000000	1.876123	-0.639081	0.307566	14.497877	0.253036	33.506359	-7.725208	0.000000	0.034608	-0.134513	1.393266	0.064271	-0.178903	1.480345	0.056858	-0.327056	1.480345	0.039554	-0.327056	1.219108	0.032137	-0.274300	1.132028	0.019775	-0.208361	1.044949	0.247202	-1.521642	7.748926	0.000000	0.000000	23.949088	4.010216	-10.918680	13.977698	-9.454314	73.297758	43.930148	89.058515	-5.825992	-2.788943	16.829880	-7.169464	72.388775	46.103011	70.076951	-3.915554	-3.606424
1.220339	-2.449239	-0.313664	83.671339	0.331952	0.948447	0.397174	-3.675044	1.387473	6.247371	5.224230	0.091180	23.882891	-8.438650	0.000000	2.007233	-0.674886	0.227327	14.563562	0.254182	33.451441	-7.515815	0.000000	0.040665	-0.129174	1.310701	0.075519	-0.171801	1.392620	0.066809	-0.314074	1.392620	0.046476	-0.314074	1.146864	0.037762	-0.263412	1.064945	0.023236	-0.200091	0.983026	0.290468	-1.461243	7.289728	0.000000	0.000000	23.874684	4.213505	-10.281107	14.486467	-9.300879	74.443665	43.505566	88.980940	-6.632187	-3.324799	16.706012	-7.261181	71.655385	46.137775	69.056143	-4.493880	-3.971660
